<mxfile host="app.diagrams.net" agent="Mozilla/5.0 (Windows NT 10.0; Win64; x64) AppleWebKit/537.36 (KHTML, like Gecko) Chrome/139.0.0.0 Safari/537.36" version="28.1.1">
  <diagram name="Trang-1" id="gEj0u6Q5iux5PnJBlXEi">
    <mxGraphModel dx="2253" dy="785" grid="1" gridSize="10" guides="1" tooltips="1" connect="1" arrows="1" fold="1" page="1" pageScale="1" pageWidth="827" pageHeight="1169" background="none" math="0" shadow="0">
      <root>
        <mxCell id="0" />
        <mxCell id="1" parent="0" />
        <mxCell id="ImUnE1_pWmh_zw83yWQ_-1" value="User" style="whiteSpace=wrap;html=1;align=center;" vertex="1" parent="1">
          <mxGeometry x="-100" y="260" width="100" height="40" as="geometry" />
        </mxCell>
        <mxCell id="ImUnE1_pWmh_zw83yWQ_-2" value="Group" style="whiteSpace=wrap;html=1;align=center;" vertex="1" parent="1">
          <mxGeometry x="340" y="260" width="100" height="40" as="geometry" />
        </mxCell>
        <mxCell id="ImUnE1_pWmh_zw83yWQ_-3" value="Message" style="whiteSpace=wrap;html=1;align=center;" vertex="1" parent="1">
          <mxGeometry x="124" y="480" width="100" height="40" as="geometry" />
        </mxCell>
        <mxCell id="ImUnE1_pWmh_zw83yWQ_-4" value="mesID" style="ellipse;whiteSpace=wrap;html=1;align=center;fontStyle=4;" vertex="1" parent="1">
          <mxGeometry x="124" y="590" width="100" height="40" as="geometry" />
        </mxCell>
        <mxCell id="ImUnE1_pWmh_zw83yWQ_-5" value="userName" style="ellipse;whiteSpace=wrap;html=1;align=center;fontStyle=4;" vertex="1" parent="1">
          <mxGeometry x="-260" y="260" width="100" height="40" as="geometry" />
        </mxCell>
        <mxCell id="ImUnE1_pWmh_zw83yWQ_-6" value="groupID" style="ellipse;whiteSpace=wrap;html=1;align=center;fontStyle=4;" vertex="1" parent="1">
          <mxGeometry x="497" y="260" width="90" height="30" as="geometry" />
        </mxCell>
        <mxCell id="ImUnE1_pWmh_zw83yWQ_-8" value="mesContent" style="ellipse;whiteSpace=wrap;html=1;align=center;" vertex="1" parent="1">
          <mxGeometry x="-30" y="590" width="100" height="40" as="geometry" />
        </mxCell>
        <mxCell id="ImUnE1_pWmh_zw83yWQ_-9" value="date" style="ellipse;whiteSpace=wrap;html=1;align=center;" vertex="1" parent="1">
          <mxGeometry x="270" y="590" width="100" height="40" as="geometry" />
        </mxCell>
        <mxCell id="ImUnE1_pWmh_zw83yWQ_-10" value="userFullName" style="ellipse;whiteSpace=wrap;html=1;align=center;" vertex="1" parent="1">
          <mxGeometry x="-260" y="180" width="100" height="40" as="geometry" />
        </mxCell>
        <mxCell id="ImUnE1_pWmh_zw83yWQ_-11" value="userPasswordHash" style="ellipse;whiteSpace=wrap;html=1;align=center;" vertex="1" parent="1">
          <mxGeometry x="-260" y="350" width="140" height="40" as="geometry" />
        </mxCell>
        <mxCell id="ImUnE1_pWmh_zw83yWQ_-18" value="" style="endArrow=none;html=1;rounded=0;" edge="1" parent="1" source="ImUnE1_pWmh_zw83yWQ_-34" target="ImUnE1_pWmh_zw83yWQ_-3">
          <mxGeometry relative="1" as="geometry">
            <mxPoint x="250" y="420" as="sourcePoint" />
            <mxPoint x="360" y="350" as="targetPoint" />
          </mxGeometry>
        </mxCell>
        <mxCell id="ImUnE1_pWmh_zw83yWQ_-19" value="N" style="resizable=0;html=1;whiteSpace=wrap;align=right;verticalAlign=bottom;" connectable="0" vertex="1" parent="ImUnE1_pWmh_zw83yWQ_-18">
          <mxGeometry x="1" relative="1" as="geometry">
            <mxPoint x="16" as="offset" />
          </mxGeometry>
        </mxCell>
        <mxCell id="ImUnE1_pWmh_zw83yWQ_-22" value="" style="endArrow=none;html=1;rounded=0;" edge="1" parent="1" source="ImUnE1_pWmh_zw83yWQ_-1" target="ImUnE1_pWmh_zw83yWQ_-11">
          <mxGeometry relative="1" as="geometry">
            <mxPoint x="100" y="450" as="sourcePoint" />
            <mxPoint x="260" y="450" as="targetPoint" />
          </mxGeometry>
        </mxCell>
        <mxCell id="ImUnE1_pWmh_zw83yWQ_-23" value="" style="endArrow=none;html=1;rounded=0;" edge="1" parent="1" source="ImUnE1_pWmh_zw83yWQ_-1" target="ImUnE1_pWmh_zw83yWQ_-5">
          <mxGeometry relative="1" as="geometry">
            <mxPoint x="45" y="380" as="sourcePoint" />
            <mxPoint x="-50" y="434" as="targetPoint" />
          </mxGeometry>
        </mxCell>
        <mxCell id="ImUnE1_pWmh_zw83yWQ_-24" value="" style="endArrow=none;html=1;rounded=0;" edge="1" parent="1" source="ImUnE1_pWmh_zw83yWQ_-10" target="ImUnE1_pWmh_zw83yWQ_-1">
          <mxGeometry relative="1" as="geometry">
            <mxPoint x="55" y="410" as="sourcePoint" />
            <mxPoint x="-40" y="464" as="targetPoint" />
          </mxGeometry>
        </mxCell>
        <mxCell id="ImUnE1_pWmh_zw83yWQ_-25" value="" style="endArrow=none;html=1;rounded=0;" edge="1" parent="1" source="ImUnE1_pWmh_zw83yWQ_-8" target="ImUnE1_pWmh_zw83yWQ_-3">
          <mxGeometry relative="1" as="geometry">
            <mxPoint x="115" y="390" as="sourcePoint" />
            <mxPoint x="20" y="444" as="targetPoint" />
          </mxGeometry>
        </mxCell>
        <mxCell id="ImUnE1_pWmh_zw83yWQ_-26" value="" style="endArrow=none;html=1;rounded=0;" edge="1" parent="1" source="ImUnE1_pWmh_zw83yWQ_-3" target="ImUnE1_pWmh_zw83yWQ_-4">
          <mxGeometry relative="1" as="geometry">
            <mxPoint x="245" y="520" as="sourcePoint" />
            <mxPoint x="150" y="574" as="targetPoint" />
          </mxGeometry>
        </mxCell>
        <mxCell id="ImUnE1_pWmh_zw83yWQ_-27" value="" style="endArrow=none;html=1;rounded=0;" edge="1" parent="1" source="ImUnE1_pWmh_zw83yWQ_-3" target="ImUnE1_pWmh_zw83yWQ_-9">
          <mxGeometry relative="1" as="geometry">
            <mxPoint x="355" y="550" as="sourcePoint" />
            <mxPoint x="260" y="604" as="targetPoint" />
          </mxGeometry>
        </mxCell>
        <mxCell id="ImUnE1_pWmh_zw83yWQ_-28" value="" style="endArrow=none;html=1;rounded=0;" edge="1" parent="1" source="ImUnE1_pWmh_zw83yWQ_-2" target="ImUnE1_pWmh_zw83yWQ_-6">
          <mxGeometry relative="1" as="geometry">
            <mxPoint x="465" y="500" as="sourcePoint" />
            <mxPoint x="370" y="554" as="targetPoint" />
          </mxGeometry>
        </mxCell>
        <mxCell id="ImUnE1_pWmh_zw83yWQ_-29" value="MemberOf" style="shape=rhombus;perimeter=rhombusPerimeter;whiteSpace=wrap;html=1;align=center;" vertex="1" parent="1">
          <mxGeometry x="114" y="130" width="120" height="60" as="geometry" />
        </mxCell>
        <mxCell id="ImUnE1_pWmh_zw83yWQ_-30" value="" style="endArrow=none;html=1;rounded=0;" edge="1" parent="1" source="ImUnE1_pWmh_zw83yWQ_-29" target="ImUnE1_pWmh_zw83yWQ_-1">
          <mxGeometry relative="1" as="geometry">
            <mxPoint x="150" y="440" as="sourcePoint" />
            <mxPoint x="310" y="440" as="targetPoint" />
          </mxGeometry>
        </mxCell>
        <mxCell id="ImUnE1_pWmh_zw83yWQ_-31" value="N" style="resizable=0;html=1;whiteSpace=wrap;align=right;verticalAlign=bottom;" connectable="0" vertex="1" parent="ImUnE1_pWmh_zw83yWQ_-30">
          <mxGeometry x="1" relative="1" as="geometry" />
        </mxCell>
        <mxCell id="ImUnE1_pWmh_zw83yWQ_-32" value="" style="endArrow=none;html=1;rounded=0;" edge="1" parent="1" source="ImUnE1_pWmh_zw83yWQ_-29" target="ImUnE1_pWmh_zw83yWQ_-2">
          <mxGeometry relative="1" as="geometry">
            <mxPoint x="410" y="250" as="sourcePoint" />
            <mxPoint x="280" y="298" as="targetPoint" />
          </mxGeometry>
        </mxCell>
        <mxCell id="ImUnE1_pWmh_zw83yWQ_-33" value="N" style="resizable=0;html=1;whiteSpace=wrap;align=right;verticalAlign=bottom;" connectable="0" vertex="1" parent="ImUnE1_pWmh_zw83yWQ_-32">
          <mxGeometry x="1" relative="1" as="geometry" />
        </mxCell>
        <mxCell id="ImUnE1_pWmh_zw83yWQ_-34" value="In" style="shape=rhombus;perimeter=rhombusPerimeter;whiteSpace=wrap;html=1;align=center;" vertex="1" parent="1">
          <mxGeometry x="234" y="350" width="120" height="60" as="geometry" />
        </mxCell>
        <mxCell id="ImUnE1_pWmh_zw83yWQ_-35" value="Have" style="shape=rhombus;perimeter=rhombusPerimeter;whiteSpace=wrap;html=1;align=center;" vertex="1" parent="1">
          <mxGeometry y="360" width="120" height="60" as="geometry" />
        </mxCell>
        <mxCell id="ImUnE1_pWmh_zw83yWQ_-36" value="" style="endArrow=none;html=1;rounded=0;" edge="1" parent="1" source="ImUnE1_pWmh_zw83yWQ_-35" target="ImUnE1_pWmh_zw83yWQ_-1">
          <mxGeometry relative="1" as="geometry">
            <mxPoint x="50" y="380" as="sourcePoint" />
            <mxPoint x="310" y="440" as="targetPoint" />
          </mxGeometry>
        </mxCell>
        <mxCell id="ImUnE1_pWmh_zw83yWQ_-37" value="1" style="resizable=0;html=1;whiteSpace=wrap;align=right;verticalAlign=bottom;" connectable="0" vertex="1" parent="ImUnE1_pWmh_zw83yWQ_-36">
          <mxGeometry x="1" relative="1" as="geometry">
            <mxPoint y="30" as="offset" />
          </mxGeometry>
        </mxCell>
        <mxCell id="ImUnE1_pWmh_zw83yWQ_-38" value="" style="endArrow=none;html=1;rounded=0;" edge="1" parent="1" source="ImUnE1_pWmh_zw83yWQ_-35" target="ImUnE1_pWmh_zw83yWQ_-3">
          <mxGeometry relative="1" as="geometry">
            <mxPoint x="150" y="440" as="sourcePoint" />
            <mxPoint x="310" y="440" as="targetPoint" />
          </mxGeometry>
        </mxCell>
        <mxCell id="ImUnE1_pWmh_zw83yWQ_-39" value="N" style="resizable=0;html=1;whiteSpace=wrap;align=right;verticalAlign=bottom;" connectable="0" vertex="1" parent="ImUnE1_pWmh_zw83yWQ_-38">
          <mxGeometry x="1" relative="1" as="geometry" />
        </mxCell>
        <mxCell id="ImUnE1_pWmh_zw83yWQ_-40" value="" style="endArrow=none;html=1;rounded=0;" edge="1" parent="1" source="ImUnE1_pWmh_zw83yWQ_-34" target="ImUnE1_pWmh_zw83yWQ_-2">
          <mxGeometry relative="1" as="geometry">
            <mxPoint x="150" y="440" as="sourcePoint" />
            <mxPoint x="310" y="440" as="targetPoint" />
          </mxGeometry>
        </mxCell>
        <mxCell id="ImUnE1_pWmh_zw83yWQ_-41" value="1" style="resizable=0;html=1;whiteSpace=wrap;align=right;verticalAlign=bottom;" connectable="0" vertex="1" parent="ImUnE1_pWmh_zw83yWQ_-40">
          <mxGeometry x="1" relative="1" as="geometry">
            <mxPoint x="9" y="30" as="offset" />
          </mxGeometry>
        </mxCell>
        <mxCell id="ImUnE1_pWmh_zw83yWQ_-42" value="Create" style="shape=rhombus;perimeter=rhombusPerimeter;whiteSpace=wrap;html=1;align=center;" vertex="1" parent="1">
          <mxGeometry x="114" y="250" width="120" height="60" as="geometry" />
        </mxCell>
        <mxCell id="ImUnE1_pWmh_zw83yWQ_-43" value="" style="endArrow=none;html=1;rounded=0;" edge="1" parent="1" source="ImUnE1_pWmh_zw83yWQ_-42" target="ImUnE1_pWmh_zw83yWQ_-1">
          <mxGeometry relative="1" as="geometry">
            <mxPoint x="150" y="440" as="sourcePoint" />
            <mxPoint x="310" y="440" as="targetPoint" />
          </mxGeometry>
        </mxCell>
        <mxCell id="ImUnE1_pWmh_zw83yWQ_-44" value="1" style="resizable=0;html=1;whiteSpace=wrap;align=right;verticalAlign=bottom;" connectable="0" vertex="1" parent="ImUnE1_pWmh_zw83yWQ_-43">
          <mxGeometry x="1" relative="1" as="geometry">
            <mxPoint x="10" as="offset" />
          </mxGeometry>
        </mxCell>
        <mxCell id="ImUnE1_pWmh_zw83yWQ_-45" value="" style="endArrow=none;html=1;rounded=0;" edge="1" parent="1" source="ImUnE1_pWmh_zw83yWQ_-42" target="ImUnE1_pWmh_zw83yWQ_-2">
          <mxGeometry relative="1" as="geometry">
            <mxPoint x="150" y="440" as="sourcePoint" />
            <mxPoint x="310" y="440" as="targetPoint" />
          </mxGeometry>
        </mxCell>
        <mxCell id="ImUnE1_pWmh_zw83yWQ_-46" value="N" style="resizable=0;html=1;whiteSpace=wrap;align=right;verticalAlign=bottom;" connectable="0" vertex="1" parent="ImUnE1_pWmh_zw83yWQ_-45">
          <mxGeometry x="1" relative="1" as="geometry" />
        </mxCell>
        <mxCell id="ImUnE1_pWmh_zw83yWQ_-47" value="groupDes" style="ellipse;whiteSpace=wrap;html=1;align=center;" vertex="1" parent="1">
          <mxGeometry x="497" y="340" width="100" height="40" as="geometry" />
        </mxCell>
        <mxCell id="ImUnE1_pWmh_zw83yWQ_-48" value="groupName" style="ellipse;whiteSpace=wrap;html=1;align=center;" vertex="1" parent="1">
          <mxGeometry x="492" y="180" width="100" height="40" as="geometry" />
        </mxCell>
        <mxCell id="ImUnE1_pWmh_zw83yWQ_-49" value="" style="endArrow=none;html=1;rounded=0;" edge="1" parent="1" source="ImUnE1_pWmh_zw83yWQ_-2" target="ImUnE1_pWmh_zw83yWQ_-47">
          <mxGeometry relative="1" as="geometry">
            <mxPoint x="150" y="440" as="sourcePoint" />
            <mxPoint x="310" y="440" as="targetPoint" />
          </mxGeometry>
        </mxCell>
        <mxCell id="ImUnE1_pWmh_zw83yWQ_-50" value="" style="endArrow=none;html=1;rounded=0;" edge="1" parent="1" source="ImUnE1_pWmh_zw83yWQ_-2" target="ImUnE1_pWmh_zw83yWQ_-48">
          <mxGeometry relative="1" as="geometry">
            <mxPoint x="400" y="290" as="sourcePoint" />
            <mxPoint x="310" y="440" as="targetPoint" />
          </mxGeometry>
        </mxCell>
        <mxCell id="ImUnE1_pWmh_zw83yWQ_-51" value="role" style="ellipse;whiteSpace=wrap;html=1;align=center;" vertex="1" parent="1">
          <mxGeometry y="40" width="100" height="40" as="geometry" />
        </mxCell>
        <mxCell id="ImUnE1_pWmh_zw83yWQ_-52" value="joinAt" style="ellipse;whiteSpace=wrap;html=1;align=center;" vertex="1" parent="1">
          <mxGeometry x="124" y="40" width="100" height="40" as="geometry" />
        </mxCell>
        <mxCell id="ImUnE1_pWmh_zw83yWQ_-53" value="lastReadMessageID&amp;nbsp;" style="ellipse;whiteSpace=wrap;html=1;align=center;" vertex="1" parent="1">
          <mxGeometry x="244" y="40" width="136" height="40" as="geometry" />
        </mxCell>
        <mxCell id="ImUnE1_pWmh_zw83yWQ_-54" value="" style="endArrow=none;html=1;rounded=0;" edge="1" parent="1" source="ImUnE1_pWmh_zw83yWQ_-51" target="ImUnE1_pWmh_zw83yWQ_-29">
          <mxGeometry relative="1" as="geometry">
            <mxPoint x="150" y="340" as="sourcePoint" />
            <mxPoint x="310" y="340" as="targetPoint" />
          </mxGeometry>
        </mxCell>
        <mxCell id="ImUnE1_pWmh_zw83yWQ_-55" value="" style="endArrow=none;html=1;rounded=0;" edge="1" parent="1" source="ImUnE1_pWmh_zw83yWQ_-29" target="ImUnE1_pWmh_zw83yWQ_-53">
          <mxGeometry relative="1" as="geometry">
            <mxPoint x="150" y="340" as="sourcePoint" />
            <mxPoint x="310" y="340" as="targetPoint" />
          </mxGeometry>
        </mxCell>
        <mxCell id="ImUnE1_pWmh_zw83yWQ_-56" value="" style="endArrow=none;html=1;rounded=0;" edge="1" parent="1" source="ImUnE1_pWmh_zw83yWQ_-29" target="ImUnE1_pWmh_zw83yWQ_-52">
          <mxGeometry relative="1" as="geometry">
            <mxPoint x="160" y="330" as="sourcePoint" />
            <mxPoint x="310" y="340" as="targetPoint" />
          </mxGeometry>
        </mxCell>
      </root>
    </mxGraphModel>
  </diagram>
</mxfile>
